<svg xmlns="http://www.w3.org/2000/svg" viewBox="0 0 64 64" width="64" height="64">
  <rect x="2" y="2" width="60" height="60" rx="14" fill="#0E5A38"/>
  <rect x="10" y="46" width="44" height="3" rx="1.5" fill="#F2F5F0"/>
  <circle cx="32" cy="28" r="14.5" fill="#F2F5F0"/>
  <path fill="#0E5A38" d="M24 20.5h16v3.4h-6.2v2.1c3.9 0.2 6.8 1 6.8 2s-2.9 1.8-6.8 2v6.5h-3.6V30c-3.9-0.2-6.8-1-6.8-2s2.9-1.8 6.8-2v-2.1H24v-3.4zm9.8 6.9v1.2c2.2-0.1 3.9-0.4 3.9-0.6s-1.7-0.5-3.9-0.6zm-3.6 1.2v-1.2c-2.2 0.1-3.9 0.4-3.9 0.6s1.7 0.5 3.9 0.6z"/>
</svg>
